<?xml version="1.0" encoding="us-ascii" standalone="no"?><svg xmlns="http://www.w3.org/2000/svg" xmlns:xlink="http://www.w3.org/1999/xlink" contentStyleType="text/css" height="389px" preserveAspectRatio="none" style="width:701px;height:389px;background:#FFFFFF;" version="1.1" viewBox="0 0 701 389" width="701px" zoomAndPan="magnify"><defs/><g><!--class TimedRDMSim--><g id="elem_TimedRDMSim"><rect codeLine="3" fill="#F1F1F1" height="48" id="TimedRDMSim" rx="2.5" ry="2.5" style="stroke:#181818;stroke-width:0.5;" width="125" x="111" y="152"/><ellipse cx="126" cy="168" fill="#ADD1B2" rx="11" ry="11" style="stroke:#181818;stroke-width:1.0;"/><path d="M128.7656,163.875 Q128.9219,163.6563 129.1094,163.5469 Q129.2969,163.4375 129.5156,163.4375 Q129.8906,163.4375 130.125,163.7031 Q130.3594,163.9531 130.3594,164.5625 L130.3594,166.0156 Q130.3594,166.625 130.125,166.8906 Q129.8906,167.1563 129.5156,167.1563 Q129.1719,167.1563 128.9688,166.9531 Q128.7656,166.7656 128.6563,166.25 Q128.6094,165.8906 128.4219,165.7031 Q128.0938,165.3281 127.4844,165.1094 Q126.875,164.8906 126.25,164.8906 Q125.4844,164.8906 124.8438,165.2188 Q124.2188,165.5469 123.7188,166.2969 Q123.2344,167.0469 123.2344,168.0781 L123.2344,169.1719 Q123.2344,170.4063 124.125,171.2344 Q125.0156,172.0469 126.6094,172.0469 Q127.5469,172.0469 128.2031,171.7969 Q128.5938,171.6406 129.0156,171.2031 Q129.2813,170.9375 129.4219,170.8594 Q129.5781,170.7813 129.7813,170.7813 Q130.1094,170.7813 130.3594,171.0469 Q130.625,171.2969 130.625,171.6406 Q130.625,171.9844 130.2813,172.3906 Q129.7813,172.9688 128.9844,173.2969 Q127.9063,173.75 126.6094,173.75 Q125.0938,173.75 123.8906,173.125 Q122.9063,172.625 122.2188,171.5625 Q121.5313,170.4844 121.5313,169.2031 L121.5313,168.0469 Q121.5313,166.7188 122.1406,165.5781 Q122.7656,164.4219 123.8594,163.8125 Q124.9531,163.1875 126.1875,163.1875 Q126.9219,163.1875 127.5625,163.3594 Q128.2188,163.5156 128.7656,163.875 Z " fill="#000000"/><text fill="#000000" font-family="sans-serif" font-size="14" lengthAdjust="spacing" textLength="93" x="140" y="173.7969">TimedRDMSim</text><line style="stroke:#181818;stroke-width:0.5;" x1="112" x2="235" y1="184" y2="184"/><line style="stroke:#181818;stroke-width:0.5;" x1="112" x2="235" y1="192" y2="192"/></g><!--class Network--><g id="elem_Network"><rect codeLine="5" fill="#F1F1F1" height="48" id="Network" rx="2.5" ry="2.5" style="stroke:#181818;stroke-width:0.5;" width="82" x="271.5" y="152"/><ellipse cx="286.5" cy="168" fill="#ADD1B2" rx="11" ry="11" style="stroke:#181818;stroke-width:1.0;"/><path d="M289.2656,163.875 Q289.4219,163.6563 289.6094,163.5469 Q289.7969,163.4375 290.0156,163.4375 Q290.3906,163.4375 290.625,163.7031 Q290.8594,163.9531 290.8594,164.5625 L290.8594,166.0156 Q290.8594,166.625 290.625,166.8906 Q290.3906,167.1563 290.0156,167.1563 Q289.6719,167.1563 289.4688,166.9531 Q289.2656,166.7656 289.1563,166.25 Q289.1094,165.8906 288.9219,165.7031 Q288.5938,165.3281 287.9844,165.1094 Q287.375,164.8906 286.75,164.8906 Q285.9844,164.8906 285.3438,165.2188 Q284.7188,165.5469 284.2188,166.2969 Q283.7344,167.0469 283.7344,168.0781 L283.7344,169.1719 Q283.7344,170.4063 284.625,171.2344 Q285.5156,172.0469 287.1094,172.0469 Q288.0469,172.0469 288.7031,171.7969 Q289.0938,171.6406 289.5156,171.2031 Q289.7813,170.9375 289.9219,170.8594 Q290.0781,170.7813 290.2813,170.7813 Q290.6094,170.7813 290.8594,171.0469 Q291.125,171.2969 291.125,171.6406 Q291.125,171.9844 290.7813,172.3906 Q290.2813,172.9688 289.4844,173.2969 Q288.4063,173.75 287.1094,173.75 Q285.5938,173.75 284.3906,173.125 Q283.4063,172.625 282.7188,171.5625 Q282.0313,170.4844 282.0313,169.2031 L282.0313,168.0469 Q282.0313,166.7188 282.6406,165.5781 Q283.2656,164.4219 284.3594,163.8125 Q285.4531,163.1875 286.6875,163.1875 Q287.4219,163.1875 288.0625,163.3594 Q288.7188,163.5156 289.2656,163.875 Z " fill="#000000"/><text fill="#000000" font-family="sans-serif" font-size="14" lengthAdjust="spacing" textLength="50" x="300.5" y="173.7969">Network</text><line style="stroke:#181818;stroke-width:0.5;" x1="272.5" x2="352.5" y1="184" y2="184"/><line style="stroke:#181818;stroke-width:0.5;" x1="272.5" x2="352.5" y1="192" y2="192"/></g><!--class VisualizationStrategy--><g id="elem_VisualizationStrategy"><rect codeLine="7" fill="#F1F1F1" height="85.2422" id="VisualizationStrategy" rx="2.5" ry="2.5" style="stroke:#181818;stroke-width:0.5;" width="333" x="7" y="7"/><ellipse cx="103.25" cy="23" fill="#B4A7E5" rx="11" ry="11" style="stroke:#181818;stroke-width:1.0;"/><path d="M104.2031,19.6406 L104.2031,26.2969 L105.9219,26.2969 Q106.5313,26.2969 106.7969,26.5313 Q107.0625,26.7656 107.0625,27.1563 Q107.0625,27.5313 106.7969,27.7656 Q106.5313,28 105.9219,28 L100.7813,28 Q100.1719,28 99.9063,27.7656 Q99.6406,27.5313 99.6406,27.1406 Q99.6406,26.7656 99.9063,26.5313 Q100.1719,26.2969 100.7813,26.2969 L102.5,26.2969 L102.5,19.6406 L100.7813,19.6406 Q100.1719,19.6406 99.9063,19.4063 Q99.6406,19.1719 99.6406,18.7813 Q99.6406,18.4063 99.9063,18.1719 Q100.1719,17.9375 100.7813,17.9375 L105.9219,17.9375 Q106.5313,17.9375 106.7969,18.1719 Q107.0625,18.4063 107.0625,18.7813 Q107.0625,19.1719 106.7969,19.4063 Q106.5313,19.6406 105.9219,19.6406 L104.2031,19.6406 Z " fill="#000000"/><text fill="#000000" font-family="sans-serif" font-size="14" font-style="italic" lengthAdjust="spacing" textLength="132" x="123.75" y="28.7969">VisualizationStrategy</text><line style="stroke:#181818;stroke-width:0.5;" x1="8" x2="339" y1="39" y2="39"/><line style="stroke:#181818;stroke-width:0.5;" x1="8" x2="339" y1="47" y2="47"/><text fill="#000000" font-family="sans-serif" font-size="14" lengthAdjust="spacing" textLength="161" x="13" y="66.1074">void init(Network network)</text><text fill="#000000" font-family="sans-serif" font-size="14" lengthAdjust="spacing" textLength="321" x="13" y="84.7285">void updateGraph(Network network, long timeStep)</text></g><!--class TopologyStrategy--><g id="elem_TopologyStrategy"><rect codeLine="12" fill="#F1F1F1" height="122.4844" id="TopologyStrategy" rx="2.5" ry="2.5" style="stroke:#181818;stroke-width:0.5;" width="419" x="275" y="260"/><ellipse cx="424.25" cy="276" fill="#B4A7E5" rx="11" ry="11" style="stroke:#181818;stroke-width:1.0;"/><path d="M425.2031,272.6406 L425.2031,279.2969 L426.9219,279.2969 Q427.5313,279.2969 427.7969,279.5313 Q428.0625,279.7656 428.0625,280.1563 Q428.0625,280.5313 427.7969,280.7656 Q427.5313,281 426.9219,281 L421.7813,281 Q421.1719,281 420.9063,280.7656 Q420.6406,280.5313 420.6406,280.1406 Q420.6406,279.7656 420.9063,279.5313 Q421.1719,279.2969 421.7813,279.2969 L423.5,279.2969 L423.5,272.6406 L421.7813,272.6406 Q421.1719,272.6406 420.9063,272.4063 Q420.6406,272.1719 420.6406,271.7813 Q420.6406,271.4063 420.9063,271.1719 Q421.1719,270.9375 421.7813,270.9375 L426.9219,270.9375 Q427.5313,270.9375 427.7969,271.1719 Q428.0625,271.4063 428.0625,271.7813 Q428.0625,272.1719 427.7969,272.4063 Q427.5313,272.6406 426.9219,272.6406 L425.2031,272.6406 Z " fill="#000000"/><text fill="#000000" font-family="sans-serif" font-size="14" font-style="italic" lengthAdjust="spacing" textLength="112" x="444.75" y="281.7969">TopologyStrategy</text><line style="stroke:#181818;stroke-width:0.5;" x1="276" x2="693" y1="292" y2="292"/><line style="stroke:#181818;stroke-width:0.5;" x1="276" x2="693" y1="300" y2="300"/><ellipse cx="286" cy="314.8105" fill="#84BE84" rx="3" ry="3" style="stroke:#038048;stroke-width:1.0;"/><text fill="#000000" font-family="sans-serif" font-size="14" lengthAdjust="spacing" textLength="264" x="295" y="319.1074">Set&lt;Link&gt; initNetwork(Network,Properties)</text><ellipse cx="286" cy="333.4316" fill="#84BE84" rx="3" ry="3" style="stroke:#038048;stroke-width:1.0;"/><text fill="#000000" font-family="sans-serif" font-size="14" lengthAdjust="spacing" textLength="370" x="295" y="337.7285">void handleAddNewMirrors(Network,newMirrors,Properties)</text><ellipse cx="286" cy="352.0527" fill="#84BE84" rx="3" ry="3" style="stroke:#038048;stroke-width:1.0;"/><text fill="#000000" font-family="sans-serif" font-size="14" lengthAdjust="spacing" textLength="393" x="295" y="356.3496">void handleRemoveMirrors(Network,removeMirrors,Properties)</text><ellipse cx="286" cy="370.6738" fill="#84BE84" rx="3" ry="3" style="stroke:#038048;stroke-width:1.0;"/><text fill="#000000" font-family="sans-serif" font-size="14" lengthAdjust="spacing" textLength="202" x="295" y="374.9707">int getNumTargetLinks(Network)</text></g><!--class Probe--><g id="elem_Probe"><rect codeLine="20" fill="#F1F1F1" height="85.2422" id="Probe" rx="2.5" ry="2.5" style="stroke:#181818;stroke-width:0.5;" width="132" x="107.5" y="278.5"/><ellipse cx="150.4" cy="294.5" fill="#A9DCDF" rx="11" ry="11" style="stroke:#181818;stroke-width:1.0;"/><path d="M152.5875,296.2656 L148.4469,296.2656 L148.025,297.2969 L148.4469,297.2969 Q149.0563,297.2969 149.3219,297.5313 Q149.5875,297.7656 149.5875,298.1563 Q149.5875,298.5313 149.3219,298.7656 Q149.0563,299 148.4469,299 L146.15,299 Q145.5406,299 145.2906,298.7656 Q145.025,298.5313 145.025,298.1406 Q145.025,297.7656 145.3063,297.5313 Q145.5719,297.2813 146.1969,297.2969 L148.8688,290.6406 L147.7594,290.6406 Q147.15,290.6406 146.8844,290.4063 Q146.6188,290.1719 146.6188,289.7813 Q146.6188,289.4063 146.8844,289.1719 Q147.15,288.9375 147.7594,288.9375 L151.4313,288.9375 L154.8219,297.2969 Q155.4156,297.2969 155.6031,297.4375 Q155.9938,297.7031 155.9938,298.1563 Q155.9938,298.5313 155.7281,298.7656 Q155.4781,299 154.8688,299 L152.5719,299 Q151.9625,299 151.6969,298.7656 Q151.4313,298.5313 151.4313,298.1406 Q151.4313,297.7656 151.6969,297.5313 Q151.9625,297.2969 152.5719,297.2969 L152.9938,297.2969 L152.5875,296.2656 Z M151.8688,294.5625 L150.5094,291.1875 L149.1344,294.5625 L151.8688,294.5625 Z " fill="#000000"/><text fill="#000000" font-family="sans-serif" font-size="14" font-style="italic" lengthAdjust="spacing" textLength="38" x="170.6" y="300.2969">Probe</text><line style="stroke:#181818;stroke-width:0.5;" x1="108.5" x2="238.5" y1="310.5" y2="310.5"/><line style="stroke:#181818;stroke-width:0.5;" x1="108.5" x2="238.5" y1="318.5" y2="318.5"/><ellipse cx="118.5" cy="333.3105" fill="#84BE84" rx="3" ry="3" style="stroke:#038048;stroke-width:1.0;"/><text fill="#000000" font-family="sans-serif" font-size="14" font-style="italic" lengthAdjust="spacing" textLength="106" x="127.5" y="337.6074">void update(int t)</text><ellipse cx="118.5" cy="351.9316" fill="#84BE84" rx="3" ry="3" style="stroke:#038048;stroke-width:1.0;"/><text fill="#000000" font-family="sans-serif" font-size="14" font-style="italic" lengthAdjust="spacing" textLength="90" x="127.5" y="356.2285">void print(int t)</text></g><!--link TimedRDMSim to Network--><g id="link_TimedRDMSim_Network"><path codeLine="26" d="M236.21,176 C246.19,176 256.18,176 266.16,176 " fill="none" id="TimedRDMSim-to-Network" style="stroke:#181818;stroke-width:1.0;"/><polygon fill="#181818" points="271.38,176,262.38,172,266.38,176,262.38,180,271.38,176" style="stroke:#181818;stroke-width:1.0;"/></g><!--link Network to TopologyStrategy--><g id="link_Network_TopologyStrategy"><path codeLine="27" d="M340.52,200.29 C359.04,215.69 384.28,236.68 408.46,256.78 " fill="none" id="Network-to-TopologyStrategy" style="stroke:#181818;stroke-width:1.0;"/><polygon fill="#181818" points="412.33,260,407.9574,251.175,408.4819,256.8075,402.8494,257.332,412.33,260" style="stroke:#181818;stroke-width:1.0;"/></g><!--reverse link VisualizationStrategy to TimedRDMSim--><g id="link_VisualizationStrategy_TimedRDMSim"><path codeLine="28" d="M173.5,97.5 C173.5,116.14 173.5,136.72 173.5,151.99 " fill="none" id="VisualizationStrategy-backto-TimedRDMSim" style="stroke:#181818;stroke-width:1.0;"/><polygon fill="#181818" points="173.5,92.3,169.5,101.3,173.5,97.3,177.5,101.3,173.5,92.3" style="stroke:#181818;stroke-width:1.0;"/></g><!--link TimedRDMSim to Probe--><g id="link_TimedRDMSim_Probe"><path codeLine="29" d="M173.5,200.29 C173.5,219.95 173.5,248.7 173.5,273.1 " fill="none" id="TimedRDMSim-to-Probe" style="stroke:#181818;stroke-width:1.0;"/><polygon fill="#181818" points="173.5,278.23,177.5,269.23,173.5,273.23,169.5,269.23,173.5,278.23" style="stroke:#181818;stroke-width:1.0;"/><text fill="#000000" font-family="sans-serif" font-size="13" lengthAdjust="spacing" textLength="5" x="168.1016" y="267.0911">*</text></g><!--link Network to Probe--><g id="link_Network_Probe"><path codeLine="30" d="M286.16,204.1 C266.86,223.95 240.21,251.37 217.68,274.55 " fill="none" id="Network-Probe" style="stroke:#181818;stroke-width:1.0;"/><polygon fill="#181818" points="289.86,200.29,280.7185,203.9552,286.3748,203.8752,286.4548,209.5315,289.86,200.29" style="stroke:#181818;stroke-width:1.0;"/><polygon fill="#181818" points="214.1,278.23,223.2415,274.5648,217.5852,274.6448,217.5052,268.9885,214.1,278.23" style="stroke:#181818;stroke-width:1.0;"/><text fill="#000000" font-family="sans-serif" font-size="13" lengthAdjust="spacing" textLength="5" x="215.1722" y="267.0911">*</text></g><!--SRC=[VLB1Ri8m3BtdAomkeuEE-uIG9atQPQ29ejr3unMBD8aI5yGG_xvGsgumj5oIFFizstbvs32xy3oPE2qDLwL-ocqvoRKC8LKa2ozB8UehhAX4jNoTPzH12-IzzLiXo33wBvaZV5AefAPloMHDnbuo5WSu2eXhPqa16U9XGmHpsPFVSELKfBnvwJQtMMFGrXJ0iO-CqINYr2-yiivgMnpQck9ISmGPylITp7PMbsuqM-tnXxSEFHE6fCclszX8epI-ABN0_Poyjpvq5DD1_xENMDeTth9z7xqZ42U20dbHbIlfu-7SUiUkPvRh46VC6IucH8arrjEEuDZ6JltN79urERcRuNmCjWbHlESofBFEuTQAD69_Nlg-vzCqlVepLyfHPl0uQ7flnQTNy0y0]--></g></svg>